# File created by Blade
# Date/Time:  Tue Jan 27 17:27:44 2015
#---------------------------------------------------------
:version 1.10
:name HOM
:units
  mass 1.0
  length 1.000000
  angle deg
:documentation
     Acclaim Skeleton File
:root
   axis xyz
   order TX TY TZ RX RY RZ
   position 0.000000 0.000000 0.000000
   orientation 0 0 0
:bonedata
   begin
      id 1
      name Spine_dum
      direction 0.000000 1.000000 0.000000
      length 7.539951
      axis 0.0 0.0 0.0 xyz
   end
   begin
      id 2
      name LeftUpLeg_dum
      direction 1.000000 0.000000 0.000000
      length 3.345476
      axis 0.0 0.0 0.0 xyz
   end
   begin
      id 3
      name RightUpLeg_dum
      direction -1.000000 0.000000 0.000000
      length 3.345476
      axis 0.0 0.0 0.0 xyz
   end
   begin
      id 4
      name Spine
      direction 0.000000 1.000000 0.000000
      length 0.000000
      axis 0.0 0.0 0.0 xyz
      dof rx ry rz
   end
   begin
      id 5
      name Spine_dum1
      direction 0.000000 1.000000 0.000000
      length 15.093809
      axis 0.0 0.0 0.0 xyz
   end
   begin
      id 6
      name Spine_dum2
      direction 0.000000 1.000000 0.000000
      length 9.738928
      axis 0.0 0.0 0.0 xyz
   end
   begin
      id 7
      name Spine_dum3
      direction 0.000000 1.000000 0.000000
      length 9.738928
      axis 0.0 0.0 0.0 xyz
   end
   begin
      id 8
      name Head
      direction 0.000000 1.000000 0.000000
      length 4.527550
      axis 0.0 0.0 0.0 xyz
      dof rx ry rz
   end
   begin
      id 9
      name LeftShoulder
      direction 1.000000 0.000000 0.000000
      length 7.084015
      axis 0.0 0.0 -90.0 xyz
      dof rx ry rz
   end
   begin
      id 10
      name LeftArm
      direction 1.000000 0.000000 0.000000
      length 10.259319
      axis 0.0 0.0 -90.0 xyz
      dof rx ry rz
   end
   begin
      id 11
      name LeftForeArm
      direction 1.000000 0.000000 0.000000
      length 9.896984
      axis 0.0 0.0 -90.0 xyz
      dof ry rz rx
   end
   begin
      id 12
      name LeftHand
      direction 0.000000 0.000000 0.000000
      length 0.000000
      axis 0.0 0.0 -90.0 xyz
      dof rx ry rz
   end
   begin
      id 13
      name LeftHand_dum1
      direction 0.000000 0.000000 0.000000
      length 0.000000
      axis 0.0 0.0 -90.0 xyz
   end
   begin
      id 14
      name LeftHand_dum2
      direction 1.000000 0.000000 0.000000
      length 3.937000
      axis 0.0 0.0 -90.0 xyz
   end
   begin
      id 15
      name LeftHandThumb1
      direction 0.000000 0.000000 1.000000
      length 3.937000
      axis 0.0 0.0 -90.0 xyz
      dof rx rz ry
   end
   begin
      id 16
      name RightShoulder
      direction -1.000000 0.000000 0.000000
      length 7.084015
      axis 0.0 0.0 90.0 xyz
      dof rx ry rz
   end
   begin
      id 17
      name RightArm
      direction -1.000000 0.000000 0.000000
      length 10.259319
      axis 0.0 0.0 90.0 xyz
      dof rx ry rz
   end
   begin
      id 18
      name RightForeArm
      direction -1.000000 0.000000 0.000000
      length 9.896984
      axis 0.0 0.0 90.0 xyz
      dof ry rz rx
   end
   begin
      id 19
      name RightHand
      direction 0.000000 0.000000 0.000000
      length 0.000000
      axis 0.0 0.0 90.0 xyz
      dof rx ry rz
   end
   begin
      id 20
      name RightHand_dum1
      direction 0.000000 0.000000 0.000000
      length 0.000000
      axis 0.0 0.0 90.0 xyz
   end
   begin
      id 21
      name RightHand_dum2
      direction -1.000000 0.000000 0.000000
      length 3.937000
      axis 0.0 0.0 90.0 xyz
   end
   begin
      id 22
      name RightHandThumb1
      direction 0.000000 0.000000 1.000000
      length 3.937000
      axis 0.0 0.0 90.0 xyz
      dof rx rz ry
   end
   begin
      id 23
      name LeftUpLeg
      direction 0.000000 -1.000000 0.000000
      length 19.114733
      axis 0.0 0.0 0.0 xyz
      dof rx ry rz
   end
   begin
      id 24
      name LeftLeg
      direction 0.000000 -1.000000 0.000000
      length 16.045604
      axis 0.0 0.0 0.0 xyz
      dof rx ry rz
   end
   begin
      id 25
      name LeftFoot
      direction 0.000000 -0.258819 0.965926
      length 5.543155
      axis 15.0 0.0 0.0 xyz
      dof rx ry rz
   end
   begin
      id 26
      name LeftToeBase
      direction 0.000000 0.000000 1.000000
      length 2.952750
      axis 0.0 0.0 0.0 xyz
      dof rx ry rz
   end
   begin
      id 27
      name RightUpLeg
      direction 0.000000 -1.000000 0.000000
      length 19.114733
      axis 0.0 0.0 0.0 xyz
      dof rx ry rz
   end
   begin
      id 28
      name RightLeg
      direction 0.000000 -1.000000 0.000000
      length 16.045604
      axis 0.0 0.0 0.0 xyz
      dof rx ry rz
   end
   begin
      id 29
      name RightFoot
      direction 0.000000 -0.258819 0.965926
      length 5.543155
      axis 15.0 0.0 0.0 xyz
      dof rx ry rz
   end
   begin
      id 30
      name RightToeBase
      direction 0.000000 0.000000 1.000000
      length 2.952750
      axis 0.0 0.0 0.0 xyz
      dof rx ry rz
   end
:hierarchy
   begin
      root Spine_dum LeftUpLeg_dum RightUpLeg_dum
      Spine_dum Spine
      LeftUpLeg_dum LeftUpLeg
      RightUpLeg_dum RightUpLeg
      Spine Spine_dum1 Spine_dum2 Spine_dum3
      Spine_dum1 Head
      Spine_dum2 LeftShoulder
      Spine_dum3 RightShoulder
      LeftShoulder LeftArm
      LeftArm LeftForeArm
      LeftForeArm LeftHand
      LeftHand LeftHand_dum1 LeftHand_dum2
      LeftHand_dum1 LeftHandThumb1
      RightShoulder RightArm
      RightArm RightForeArm
      RightForeArm RightHand
      RightHand RightHand_dum1 RightHand_dum2
      RightHand_dum1 RightHandThumb1
      LeftUpLeg LeftLeg
      LeftLeg LeftFoot
      LeftFoot LeftToeBase
      RightUpLeg RightLeg
      RightLeg RightFoot
      RightFoot RightToeBase
   end

# File created by Blade
# Date/Time:  Tue Jan 27 17:27:32 2015
# Frame Rate: 120.000 fps
#------------------------------------------------------
:FULLY-SPECIFIED
:DEGREES
953
root 3.868009 37.195174 -0.816528 13.145808 18.809956 -2.435481
Spine -6.477553 16.306349 -3.186035
Head 10.073261 -2.666591 -1.075115
LeftShoulder -5.270219 -8.568500 5.830261
LeftArm 3.618446 -18.469127 -55.404217
LeftForeArm 9.902686 -0.000000 108.289512
LeftHand -16.459234 -0.000000 35.235637
LeftHandThumb1 -26.253704 0.000000 33.147579
RightShoulder -4.580517 -22.682001 0.036367
RightArm 15.355468 -24.101694 62.162600
RightForeArm 187.197945 0.000000 22.420824
RightHand 0.773308 0.000000 2.805656
RightHandThumb1 -24.326973 -0.000000 -32.862282
LeftUpLeg -15.862465 -0.278876 -0.149457
LeftLeg 5.724926 -0.000000 -0.000000
LeftFoot -8.053111 -13.332924 -15.013445
LeftToeBase 15.314891 -0.000000 -0.000000
RightUpLeg -79.717506 -21.231004 45.193702
RightLeg 108.298223 -0.000000 -0.000000
RightFoot 1.899237 6.992663 14.656551
RightToeBase 2.877146 -0.000000 -0.000000
954
root 3.864493 37.181994 -0.828544 13.581374 18.392227 -2.225424
Spine -6.983929 16.669419 -3.740314
Head 10.248549 -2.605860 -1.240345
LeftShoulder -5.282138 -8.587290 5.773040
LeftArm 3.788403 -18.388510 -55.252538
LeftForeArm 10.254060 -0.000000 108.431018
LeftHand -16.512095 -0.000000 35.097420
LeftHandThumb1 -26.253704 0.000000 33.147579
RightShoulder -4.559367 -22.778315 0.016467
RightArm 15.448019 -24.253454 62.106345
RightForeArm 187.259666 -0.000000 22.359781
RightHand 0.662370 -0.000000 2.482931
RightHandThumb1 -24.326973 -0.000000 -32.862282
LeftUpLeg -16.193840 -0.352522 -0.326395
LeftLeg 5.691602 -0.000000 -0.000000
LeftFoot -8.178026 -12.972414 -15.099555
LeftToeBase 15.295084 -0.000000 -0.000000
RightUpLeg -79.946101 -20.988793 45.863214
RightLeg 109.049050 -0.000000 -0.000000
RightFoot 1.968171 6.618518 15.762518
RightToeBase 2.749593 -0.000000 -0.000000
955
root 3.861342 37.169546 -0.834228 13.895184 17.983549 -2.005737
Spine -7.323384 16.987321 -4.268929
Head 10.312410 -2.464246 -1.304241
LeftShoulder -5.299210 -8.598411 5.672871
LeftArm 3.949792 -18.423794 -55.049902
LeftForeArm 10.354239 -0.000000 108.649292
LeftHand -16.701978 -0.000000 34.698263
LeftHandThumb1 -26.253704 0.000000 33.147579
RightShoulder -4.513746 -22.815616 0.018327
RightArm 15.555301 -24.377257 62.029799
RightForeArm 187.282302 0.000000 22.280560
RightHand 0.540330 -0.000000 2.003301
RightHandThumb1 -24.326973 -0.000000 -32.862282
LeftUpLeg -16.385020 -0.383160 -0.511641
LeftLeg 5.613624 -0.000000 -0.000000
LeftFoot -8.204819 -12.756111 -15.225227
LeftToeBase 15.229146 -0.000000 -0.000000
RightUpLeg -80.027733 -20.812327 46.332413
RightLeg 109.774716 -0.000000 -0.000000
RightFoot 2.109843 6.204809 16.739090
RightToeBase 2.589843 -0.000000 -0.000000
956
root 3.856060 37.159248 -0.837756 14.152335 17.627976 -1.801201
Spine -7.598517 17.212550 -4.740274
Head 10.458218 -2.344431 -1.433873
LeftShoulder -5.322067 -8.607637 5.570795
LeftArm 4.075910 -18.476516 -54.828035
LeftForeArm 10.417358 -0.000000 108.851856
LeftHand -16.762738 -0.000000 34.410131
LeftHandThumb1 -26.253704 0.000000 33.147579
RightShoulder -4.384870 -22.875482 -0.002206
RightArm 15.652344 -24.427726 61.958889
RightForeArm 187.276049 0.000000 22.243484
RightHand 0.443605 -0.000000 1.769160
RightHandThumb1 -24.326973 -0.000000 -32.862282
LeftUpLeg -16.521697 -0.418560 -0.677232
LeftLeg 5.547372 -0.000000 -0.000000
LeftFoot -8.270471 -12.528895 -15.305944
LeftToeBase 15.206606 -0.000000 -0.000000
RightUpLeg -80.034921 -20.657859 46.648741
RightLeg 110.440767 -0.000000 -0.000000
RightFoot 2.343354 5.832850 17.612142
RightToeBase 2.857442 -0.000000 -0.000000
957
root 3.853407 37.148183 -0.840664 14.413574 17.234372 -1.578606
Spine -7.885530 17.458118 -5.249723
Head 10.595361 -2.236924 -1.572836
LeftShoulder -5.361159 -8.616208 5.507157
LeftArm 4.201505 -18.535027 -54.641188
LeftForeArm 10.446980 0.000000 109.036199
LeftHand -16.853519 -0.000000 34.142391
LeftHandThumb1 -26.253704 0.000000 33.147579
RightShoulder -4.274010 -22.905281 -0.026735
RightArm 15.750845 -24.475350 61.895850
RightForeArm 187.230370 0.000000 22.199487
RightHand 0.507886 -0.000000 1.614959
RightHandThumb1 -24.326973 -0.000000 -32.862282
LeftUpLeg -16.659189 -0.246679 -0.917716
LeftLeg 5.485486 -0.000000 -0.000000
LeftFoot -8.259647 -12.496570 -15.388538
LeftToeBase 15.185744 -0.000000 -0.000000
RightUpLeg -79.981571 -20.451205 46.761314
RightLeg 111.054649 -0.000000 -0.000000
RightFoot 2.714006 5.519173 18.108368
RightToeBase 2.998389 -0.000000 -0.000000
